<svg width="35" height="35" viewBox="0 0 35 35" fill="none" xmlns="http://www.w3.org/2000/svg">
<path d="M17.5 23.3333C17.1593 23.334 16.829 23.2153 16.5667 22.9979L7.81667 15.7062C7.51885 15.4587 7.33157 15.103 7.29601 14.7174C7.26046 14.3318 7.37955 13.9478 7.62708 13.65C7.87462 13.3522 8.23032 13.1649 8.61594 13.1293C9.00157 13.0938 9.38552 13.2129 9.68333 13.4604L17.5 19.9937L25.3167 13.6937C25.4658 13.5726 25.6375 13.4821 25.8217 13.4276C26.006 13.373 26.1992 13.3553 26.3903 13.3757C26.5813 13.396 26.7665 13.4539 26.9352 13.546C27.1038 13.6381 27.2526 13.7627 27.3729 13.9125C27.5065 14.0624 27.6076 14.2384 27.67 14.4292C27.7324 14.6201 27.7547 14.8218 27.7356 15.0216C27.7164 15.2215 27.6562 15.4153 27.5586 15.5908C27.4611 15.7663 27.3284 15.9198 27.1687 16.0417L18.4188 23.0854C18.1488 23.2685 17.8254 23.3557 17.5 23.3333Z" fill="#FE3838"/>
</svg>
