<svg width="35" height="35" viewBox="0 0 35 35" fill="none" xmlns="http://www.w3.org/2000/svg">
<path d="M26.25 21.875C25.9092 21.8757 25.579 21.757 25.3167 21.5396L17.5 15.0063L9.66874 21.3063C9.51957 21.4274 9.34793 21.5179 9.16369 21.5725C8.97944 21.627 8.78623 21.6447 8.59514 21.6243C8.40406 21.604 8.21888 21.5461 8.05024 21.454C7.8816 21.3619 7.73284 21.2373 7.61249 21.0875C7.49135 20.9383 7.40089 20.7667 7.3463 20.5825C7.29172 20.3982 7.27408 20.205 7.29441 20.0139C7.31474 19.8228 7.37263 19.6376 7.46476 19.469C7.55688 19.3004 7.68143 19.1516 7.83124 19.0313L16.5812 11.9875C16.8422 11.773 17.1695 11.6558 17.5073 11.6558C17.8451 11.6558 18.1724 11.773 18.4333 11.9875L27.1833 19.2792C27.331 19.4016 27.4531 19.552 27.5425 19.7216C27.632 19.8913 27.6871 20.077 27.7047 20.268C27.7223 20.459 27.7021 20.6516 27.6452 20.8348C27.5882 21.0179 27.4957 21.1881 27.3729 21.3354C27.2372 21.5027 27.0661 21.6379 26.872 21.7312C26.6778 21.8245 26.4654 21.8736 26.25 21.875Z" fill="#2DBE4B"/>
</svg>
