<svg width="25" height="25" viewBox="0 0 25 25" fill="none" xmlns="http://www.w3.org/2000/svg">
<path d="M14.445 5.82183C14.4451 6.07733 14.3948 6.33035 14.2971 6.56644C14.1994 6.80252 14.0562 7.01705 13.8756 7.19778C13.695 7.3785 13.4805 7.52189 13.2445 7.61974C13.0085 7.71759 12.7555 7.768 12.5 7.76808C12.2445 7.76816 11.9915 7.71792 11.7554 7.62022C11.5193 7.52252 11.3048 7.37927 11.124 7.19866C10.9433 7.01805 10.7999 6.80361 10.7021 6.56759C10.6042 6.33157 10.5538 6.07858 10.5537 5.82308C10.5536 5.30707 10.7584 4.81213 11.1232 4.44713C11.4879 4.08214 11.9827 3.877 12.4987 3.87683C13.0148 3.87667 13.5097 4.08149 13.8747 4.44625C14.2397 4.81101 14.4448 5.30582 14.445 5.82183Z" fill="#606060"/>
<path d="M12.4997 14.4443C13.5739 14.4443 14.4447 13.5735 14.4447 12.4993C14.4447 11.4251 13.5739 10.5543 12.4997 10.5543C11.4256 10.5543 10.5547 11.4251 10.5547 12.4993C10.5547 13.5735 11.4256 14.4443 12.4997 14.4443Z" fill="#606060"/>
<path d="M12.4997 21.123C13.5739 21.123 14.4447 20.2522 14.4447 19.178C14.4447 18.1038 13.5739 17.233 12.4997 17.233C11.4256 17.233 10.5547 18.1038 10.5547 19.178C10.5547 20.2522 11.4256 21.123 12.4997 21.123Z" fill="#606060"/>
</svg>
